<svg xmlns="http://www.w3.org/2000/svg" viewBox="0 0 48 48">
  <path fill="#4285F4" d="M24 9.5c3.94 0 6.64 1.71 8.16 3.14l5.98-5.98C34.2 3.47 29.5 1 24 1 14.95 1 7.3 6.66 4.1 14.44l6.97 5.41C12.56 13.04 17.86 9.5 24 9.5z"></path>
  <path fill="#34A853" d="M46.13 24.49c0-1.66-.15-3.26-.44-4.8H24v9.09h12.42c-.54 2.94-2.19 5.43-4.68 7.09l7.15 5.56c4.16-3.83 6.54-9.47 6.54-16.94z"></path>
  <path fill="#FBBC05" d="M10.77 28.59c-.48-1.43-.75-2.95-.75-4.59s.27-3.16.75-4.59l-6.97-5.41C2.51 17.44 1.75 20.62 1.75 24s.76 6.56 2.05 9.59l6.97-5z"></path>
  <path fill="#EA4335" d="M24 46.5c5.5 0 10.14-1.81 13.51-4.92l-7.15-5.56c-1.97 1.32-4.51 2.11-6.36 2.11-6.14 0-11.44-3.54-13.94-8.94l-6.97 5.4C7.3 41.34 14.95 46.5 24 46.5z"></path>
</svg>
